<?xml version="1.0" encoding="utf-8"?>
<!-- Generator: Adobe Illustrator 24.3.0, SVG Export Plug-In . SVG Version: 6.00 Build 0)  -->
<svg version="1.1" id="bb554b9e-b999-4ef3-b2f2-4c0395b94ae2"
	 xmlns="http://www.w3.org/2000/svg" xmlns:xlink="http://www.w3.org/1999/xlink" x="0px" y="0px" viewBox="0 0 200 100"
	 style="enable-background:new 0 0 200 100;" xml:space="preserve">
<style type="text/css">
	.st0{fill:#D0CDE1;}
	.st1{fill:#FA595F;}
	.st2{fill:#3F3D56;}
	.st3{fill:#FFFFFF;}
	.st4{fill:#F0F0F0;}
	.st5{fill:#F2F2F2;}
	.st6{fill:#CCCCCC;}
</style>
<g>
	<path class="st0" d="M432.4,56.4h-63.9V13.7h63.9V56.4z M368.9,56.1h63.2v-42h-63.2V56.1z"/>
	<rect x="382.7" y="31.7" class="st1" width="7.6" height="20"/>
	<rect x="396.7" y="39.5" class="st1" width="7.6" height="12.3"/>
	<rect x="410.7" y="23.4" class="st1" width="7.6" height="28.3"/>
	<circle class="st2" cx="400.5" cy="31.7" r="3.8"/>
	<path class="st0" d="M291.3,24.1h-47.5v-18h47.5V24.1z M244.1,23.8h46.8V6.5h-46.8V23.8z"/>
	<path class="st0" d="M344,54.2H318V41.5H344V54.2z M318.4,53.8h25.2V41.9h-25.2V53.8z"/>
	<polygon class="st1" points="263,11.2 272,15.2 263,19 	"/>
	<circle class="st1" cx="325.1" cy="47.9" r="1.9"/>
	<circle class="st1" cx="331" cy="47.9" r="1.9"/>
	<circle class="st1" cx="336.9" cy="47.9" r="1.9"/>
	<path class="st0" d="M330.7,27.9l-1.8,2.3c-2.8-4-6.2-7.2-10-9.6c-3.2-2-6.8-3.4-10.5-4.2c-6.4-1.4-11.3-0.4-11.4-0.4l0.1,0.6
		c0,0,4.9-0.9,11.1,0.4c5.7,1.2,13.7,4.5,20.1,13.5l-2.8,0.6c1.7,0.5,3.9,1.8,5.4,3C330.6,32.2,330.4,29.7,330.7,27.9z"/>
	<path class="st0" d="M378.6,65.6c0,0-3.9,3.1-10.1,4.8c-5.6,1.6-14.2,2.4-24-2.6l2.2-1.8c-1.8,0.3-4.3,0.2-6.2-0.1
		c1.2,1.5,2.6,3.6,3.2,5.3l0.5-2.8c4.3,2.2,8.8,3.5,13.3,3.8c0.8,0.1,1.5,0.1,2.3,0.1c3,0,6-0.4,8.9-1.2c6.3-1.8,10.2-4.9,10.3-4.9
		L378.6,65.6z"/>
	<path class="st0" d="M283.2,61.3c0,0,3.9,3.1,10.1,4.8c5.6,1.6,14.2,2.4,24-2.6l-2.2-1.8c1.8,0.3,4.3,0.2,6.2-0.1
		c-1.2,1.5-2.6,3.6-3.2,5.3l-0.5-2.8c-4.3,2.2-8.8,3.5-13.3,3.8c-0.8,0.1-1.5,0.1-2.3,0.1c-3,0-6-0.4-8.9-1.2
		c-6.3-1.8-10.2-4.9-10.3-4.9L283.2,61.3z"/>
	<path class="st0" d="M274.4,69.3h-26.6V42.7h26.6V69.3z M248.2,68.9h25.9V43.1h-25.9V68.9z"/>
	<rect x="253" y="51.1" class="st1" width="16.3" height="1.5"/>
	<rect x="253" y="55.3" class="st1" width="16.3" height="1.5"/>
	<rect x="253" y="59.4" class="st1" width="16.3" height="1.5"/>
	<path class="st2" d="M353.6,17.7c0-1.1,0.9-2.1,2.1-2.1s2.1,0.9,2.1,2.1s-0.9,2.1-2.1,2.1C354.5,19.8,353.6,18.9,353.6,17.7z
		 M354,17.7c0,1,0.8,1.7,1.7,1.7s1.7-0.8,1.7-1.7s-0.8-1.7-1.7-1.7C354.7,16,354,16.8,354,17.7z"/>
	<path class="st2" d="M377.7,93.9l-3.1-3.3l3.3-3.1l3.1,3.3L377.7,93.9z M375.2,90.6l2.6,2.8l2.8-2.6l-2.6-2.8L375.2,90.6z"/>
	<path class="st2" d="M296.9,37.2l-3.1-3.3l3.3-3.1l3.1,3.3L296.9,37.2z M294.3,34l2.6,2.8l2.8-2.6l-2.6-2.8L294.3,34z"/>
</g>
<g>
	<path class="st1" d="M592.5,22.9v69c0,1.7-1.4,3.1-3.1,3.1h-28c-1.7,0-3.1-1.4-3.1-3.1c0,0,0,0,0,0v-69c0-1.7,1.4-3.1,3.1-3.1
		c0,0,0,0,0,0h4.2v0.5c0,1.4,1.1,2.6,2.6,2.6h14.2c1.4,0,2.6-1.1,2.6-2.6v-0.5h4.5C591.1,19.8,592.5,21.2,592.5,22.9
		C592.5,22.9,592.5,22.9,592.5,22.9z"/>
	<rect x="559.5" y="31.3" class="st2" width="31.8" height="15.5"/>
	<path class="st3" d="M572.3,41.9c0.8,3.1,3.7,5,3.7,5s1.5-3.1,0.7-6.2c-0.8-3.1-3.7-5-3.7-5S571.5,38.9,572.3,41.9z"/>
	<path class="st1" d="M573.5,41.3c2.3,2.2,2.6,5.6,2.6,5.6s-3.4-0.2-5.7-2.4s-2.6-5.6-2.6-5.6S571.2,39.1,573.5,41.3z"/>
	<path class="st3" d="M579.8,41.9c-0.8,3.1-3.7,5-3.7,5s-1.5-3.1-0.7-6.2s3.7-5,3.7-5S580.7,38.9,579.8,41.9z"/>
	<path class="st1" d="M578.6,41.3c-2.3,2.2-2.6,5.6-2.6,5.6s3.4-0.2,5.7-2.4c2.3-2.2,2.6-5.6,2.6-5.6S580.9,39.1,578.6,41.3z"/>
	<rect x="562.3" y="55.5" class="st4" width="26.1" height="1.4"/>
	<rect x="562.3" y="57.8" class="st4" width="26.1" height="1.4"/>
	<rect x="562.3" y="60.1" class="st4" width="26.1" height="1.4"/>
	<rect x="562.3" y="62.4" class="st4" width="26.1" height="1.4"/>
	
		<rect x="571.8" y="72" transform="matrix(0.5789 -0.8154 0.8154 0.5789 180.7073 500.9891)" class="st4" width="7.1" height="7.1"/>
	<path class="st2" d="M576.2,82c-0.9,0-1.6-0.7-1.6-1.6c0-0.9,0.7-1.6,1.6-1.6c0.9,0,1.6,0.7,1.6,1.6C577.8,81.3,577.1,82,576.2,82z
		 M576.2,79c-0.8,0-1.4,0.6-1.4,1.4c0,0.8,0.6,1.4,1.4,1.4c0.8,0,1.4-0.6,1.4-1.4l0,0C577.5,79.6,576.9,79,576.2,79L576.2,79z"/>
	<path class="st5" d="M536.1,8.1v69c0,1.7-1.4,3.1-3.1,3.1h-28c-1.7,0-3.1-1.4-3.1-3.1c0,0,0,0,0,0v-69c0-1.7,1.4-3.1,3.1-3.1
		c0,0,0,0,0,0h4.2v0.5c0,1.4,1.1,2.6,2.6,2.6H526c1.4,0,2.6-1.1,2.6-2.6V5h4.5C534.7,5,536.1,6.4,536.1,8.1
		C536.1,8.1,536.1,8.1,536.1,8.1z"/>
	<path class="st2" d="M532.5,42.7h-27.4V18.2h27.4V42.7z M505.4,42.4h26.8v-24h-26.8V42.4z"/>
	
		<rect x="518.7" y="12.3" transform="matrix(0.6665 -0.7455 0.7455 0.6665 150.3645 396.9755)" class="st2" width="0.3" height="36.3"/>
	
		<rect x="500.7" y="30.3" transform="matrix(0.7455 -0.6665 0.6665 0.7455 111.739 353.5353)" class="st2" width="36.3" height="0.3"/>
	<rect x="505.3" y="49.8" class="st2" width="27.1" height="0.3"/>
	<rect x="505.3" y="52.3" class="st2" width="27.1" height="0.3"/>
	<rect x="505.3" y="54.7" class="st2" width="27.1" height="0.3"/>
	<rect x="505.3" y="57.2" class="st2" width="13.5" height="0.3"/>
	<rect x="505.3" y="59.7" class="st2" width="13.5" height="0.3"/>
	<path class="st5" d="M648.7,8.1v69c0,1.7-1.4,3.1-3.1,3.1h-28c-1.7,0-3.1-1.4-3.1-3.1c0,0,0,0,0,0v-69c0-1.7,1.4-3.1,3.1-3.1
		c0,0,0,0,0,0h4.2v0.5c0,1.4,1.1,2.6,2.6,2.6h14.2c1.4,0,2.6-1.1,2.6-2.6V5h4.5C647.3,5,648.7,6.4,648.7,8.1
		C648.7,8.1,648.7,8.1,648.7,8.1z"/>
	<rect x="618.2" y="40.4" class="st2" width="27.1" height="0.3"/>
	<rect x="618.2" y="47.5" class="st2" width="27.1" height="0.3"/>
	<rect x="618.2" y="54.6" class="st2" width="27.1" height="0.3"/>
	<circle class="st1" cx="631" cy="25.5" r="4.4"/>
	<rect x="638.5" y="39.1" class="st1" width="1.9" height="4.4"/>
	<rect x="621.6" y="46.1" class="st1" width="1.9" height="4.4"/>
	<rect x="632.9" y="53.1" class="st1" width="1.9" height="4.4"/>
	<path class="st2" d="M631.6,30.5c-3,0-5.5-2.5-5.5-5.5s2.5-5.5,5.5-5.5c3,0,5.5,2.5,5.5,5.5c0,0,0,0,0,0
		C637.1,28.1,634.7,30.5,631.6,30.5z M631.6,19.8c-2.9,0-5.2,2.3-5.2,5.2s2.3,5.2,5.2,5.2c2.9,0,5.2-2.3,5.2-5.2
		C636.8,22.2,634.5,19.8,631.6,19.8L631.6,19.8z"/>
	
		<rect x="545" y="39.3" transform="matrix(0.7711 -0.6367 0.6367 0.7711 94.2369 358.0749)" class="st2" width="0.3" height="17.2"/>
	<path class="st2" d="M552,56.2c-0.9-0.5-2.2-1.1-3.2-1.2l1.7-0.6l0.9-1.5C551.3,53.9,551.6,55.2,552,56.2z"/>
	
		<rect x="596.7" y="47.8" transform="matrix(0.6365 -0.7713 0.7713 0.6365 183.0274 484.3028)" class="st2" width="17.2" height="0.3"/>
	<path class="st2" d="M598.5,56.2c0.3-1,0.6-2.3,0.6-3.3l0.9,1.5l1.7,0.6C600.7,55.2,599.4,55.7,598.5,56.2z"/>
</g>
<g>
	<g>
		<path class="st3" d="M4.7,40h48.8V15.3H4.7V40z"/>
		<path class="st2" d="M53.7,40.3H4.4V15h49.4V40.3z M4.7,40h48.8V15.3H4.7V40z"/>
		<rect x="13.4" y="23.6" class="st1" width="5" height="0.4"/>
		<rect x="20" y="23.6" class="st1" width="5" height="0.4"/>
		<rect x="29.7" y="27.4" class="st1" width="5" height="0.4"/>
		<rect x="36.4" y="27.4" class="st1" width="5" height="0.4"/>
		<rect x="26.8" y="23.6" class="st1" width="14.6" height="0.4"/>
		<rect x="13.4" y="27.4" class="st1" width="14.6" height="0.4"/>
		<rect x="13.4" y="31.3" class="st1" width="14.6" height="0.4"/>
		<rect x="31.2" y="31.3" class="st1" width="10.1" height="0.4"/>
		<polygon class="st1" points="12,25.4 10.3,23.6 12,21.9 12.4,22.2 11,23.6 12.4,25 		"/>
		<polygon class="st1" points="46.1,33.4 45.7,33.1 47.1,31.7 45.7,30.3 46.1,29.9 47.8,31.7 		"/>
		<rect x="42.2" y="31.4" transform="matrix(0.29 -0.957 0.957 0.29 0.9452 64.5281)" class="st1" width="3.6" height="0.5"/>
	</g>
	<path class="st5" d="M140.3,83.3H61.8c-1.1,0-2-0.9-2-2V32.9c0-0.8,0.7-1.5,1.5-1.5h79.6c0.8,0,1.5,0.7,1.5,1.5v48.4
		C142.3,82.4,141.4,83.3,140.3,83.3z"/>
	<path class="st3" d="M137.7,80.8H64.6c-1.1,0-1.9-0.8-1.9-1.8V36.8c0-0.7,0.6-1.4,1.4-1.4h74.2c0.8,0,1.5,0.6,1.5,1.4v42.1
		C139.7,79.9,138.8,80.8,137.7,80.8z"/>
	<path class="st2" d="M142.3,33.1H59.7v-1c0-1.1,0.9-2,2-2h78.5c1.1,0,2,0.9,2,2V33.1z"/>
	<circle class="st3" cx="63.4" cy="31.6" r="0.5"/>
	<circle class="st3" cx="65.4" cy="31.6" r="0.5"/>
	<circle class="st3" cx="67.4" cy="31.6" r="0.5"/>
	<path class="st6" d="M99.4,44.6H85.1c-0.4,0-0.8-0.4-0.8-0.8c0-0.4,0.4-0.8,0.8-0.8h14.3c0.4,0,0.8,0.4,0.8,0.8
		C100.2,44.3,99.9,44.6,99.4,44.6C99.4,44.6,99.4,44.6,99.4,44.6z"/>
	<path class="st6" d="M117.2,44.6h-14.3c-0.4,0-0.8-0.4-0.8-0.8c0-0.4,0.4-0.8,0.8-0.8h14.3c0.4,0,0.8,0.4,0.8,0.8
		C118,44.3,117.7,44.6,117.2,44.6C117.2,44.6,117.2,44.6,117.2,44.6z"/>
	<path class="st6" d="M117.2,47.7H92.3c-0.4,0-0.8-0.4-0.8-0.8c0-0.4,0.4-0.8,0.8-0.8l0,0h24.9c0.4,0,0.8,0.4,0.8,0.8
		C118,47.3,117.7,47.7,117.2,47.7z"/>
	<path class="st6" d="M99.4,41.6H85.1c-0.4,0-0.8-0.4-0.8-0.8c0-0.4,0.4-0.8,0.8-0.8h14.3c0.4,0,0.8,0.4,0.8,0.8
		C100.2,41.2,99.9,41.6,99.4,41.6C99.4,41.6,99.4,41.6,99.4,41.6z"/>
	<path class="st6" d="M107.3,41.6h-4.1c-0.4,0-0.8-0.4-0.8-0.8c0-0.4,0.4-0.8,0.8-0.8h4.1c0.4,0,0.8,0.4,0.8,0.8
		C108.1,41.2,107.7,41.6,107.3,41.6C107.3,41.6,107.3,41.6,107.3,41.6z"/>
	<path class="st6" d="M89.2,47.7h-4.1c-0.4,0-0.8-0.4-0.8-0.8c0-0.4,0.4-0.8,0.8-0.8h4.1c0.4,0,0.8,0.4,0.8,0.8
		C90,47.3,89.6,47.7,89.2,47.7C89.2,47.7,89.2,47.7,89.2,47.7z"/>
	<path class="st6" d="M99.4,73.2H85.1c-0.4,0-0.8-0.4-0.8-0.8c0-0.4,0.4-0.8,0.8-0.8h14.3c0.4,0,0.8,0.4,0.8,0.8
		C100.2,72.8,99.9,73.2,99.4,73.2L99.4,73.2z"/>
	<path class="st6" d="M117.2,73.2h-14.3c-0.4,0-0.8-0.4-0.8-0.8c0-0.4,0.4-0.8,0.8-0.8l0,0h14.3c0.4,0,0.8,0.4,0.8,0.8
		C118,72.8,117.7,73.2,117.2,73.2z"/>
	<path class="st6" d="M117.2,76.2H92.3c-0.4,0-0.8-0.4-0.8-0.8c0-0.4,0.4-0.8,0.8-0.8l0,0h24.9c0.4,0,0.8,0.4,0.8,0.8
		C118,75.9,117.7,76.2,117.2,76.2C117.2,76.2,117.2,76.2,117.2,76.2z"/>
	<path class="st6" d="M99.4,70.1H85.1c-0.4,0-0.8-0.4-0.8-0.8c0-0.4,0.4-0.8,0.8-0.8l0,0h14.3c0.4,0,0.8,0.4,0.8,0.8
		C100.2,69.7,99.9,70.1,99.4,70.1z"/>
	<path class="st6" d="M107.3,70.1h-4.1c-0.4,0-0.8-0.4-0.8-0.8c0-0.4,0.4-0.8,0.8-0.8h4.1c0.4,0,0.8,0.4,0.8,0.8
		C108.1,69.8,107.7,70.1,107.3,70.1z"/>
	<path class="st6" d="M89.2,76.2h-4.1c-0.4,0-0.8-0.4-0.8-0.8c0-0.4,0.4-0.8,0.8-0.8l0,0h4.1c0.4,0,0.8,0.4,0.8,0.8
		C90,75.9,89.6,76.2,89.2,76.2C89.2,76.2,89.2,76.2,89.2,76.2z"/>
	<path class="st1" d="M95.7,64.6c-0.3,0-0.6-0.1-0.8-0.3l-5.4-5.3c-0.4-0.4-0.4-1.1,0-1.6c0,0,0,0,0,0l5.4-5.3
		c0.5-0.5,1.2-0.5,1.7,0l0,0c0.5,0.5,0.5,1.2,0,1.7l-4,4c-0.3,0.3-0.3,0.7,0,0.9l4,4c0.5,0.5,0.5,1.2,0,1.6
		C96.3,64.4,96,64.6,95.7,64.6L95.7,64.6z"/>
	<path class="st1" d="M104.3,64.6c-0.6,0-1.2-0.5-1.2-1.2c0-0.3,0.1-0.6,0.3-0.8l4-4c0.3-0.3,0.3-0.7,0-0.9l-4-4
		c-0.5-0.5-0.5-1.2,0-1.7c0,0,0,0,0,0l0,0c0.5-0.5,1.2-0.5,1.7,0l5.4,5.3c0.4,0.4,0.4,1.1,0,1.6c0,0,0,0,0,0l-5.4,5.3
		C104.9,64.4,104.6,64.6,104.3,64.6z"/>
	<path class="st0" d="M12.3,46.9c0,0.1,2.3,5.2,7.7,10.3c4.9,4.6,13.3,10,25.9,10.1l-1.2-3c1.6,1.3,4.3,2.5,6.3,3.2
		c-2,0.9-4.5,2.3-6,3.7l1-3.1c-5.6,0-10.9-1.1-15.6-3.2c-0.8-0.4-1.6-0.7-2.4-1.1c-3.1-1.6-5.9-3.6-8.4-6
		c-5.5-5.2-7.8-10.4-7.9-10.5L12.3,46.9z"/>
	<g>
		<path class="st2" d="M118.8,63.3c0.8-0.6,1.6-1.1,2.6-1.3c2.6-0.8,5.3,0,8,0.7c1.4,0.4,2.9,0.8,4.3,0.9c2.3,0.3,4.5-0.1,6.3-1
			c2-1.1,3.4-2.9,3.8-4.9c0.1-0.3,0.1-0.5,0.1-0.8c-0.2,0.1-0.4,0.2-0.6,0.4c-2.1,1.2-5,2.4-7.1,0.9c-0.8-0.6-1.3-1.5-1.4-2.7
			c-0.1-1.2,0.3-2.4,1-3.2c0.1-0.1,0.3-0.3,0.4-0.4c1.5-1.2,3.9-1.3,5.6-0.1c1.4,1,2.3,2.9,2.3,4.7c1.2-0.8,2.4-1.6,3.6-2.5l0.1,0.1
			c-1.2,0.9-2.4,1.8-3.7,2.6c0,0.3-0.1,0.6-0.1,0.9c-0.4,2-1.9,3.9-3.9,5c-1.8,1-4,1.3-6.3,1.1c-1.5-0.2-2.9-0.6-4.4-0.9
			c-2.7-0.7-5.3-1.4-7.9-0.7c-2.6,0.7-4.7,3-5.2,5.7c-0.5,2.7,0.5,5.6,2.7,7.2l-0.1,0.1c-2.2-1.7-3.3-4.7-2.7-7.4
			C116.4,66,117.4,64.4,118.8,63.3z M143.9,56.7c0.1-1.9-0.8-3.7-2.2-4.7c-1.8-1.3-4.4-1.1-5.8,0.4c-0.7,0.8-1.1,1.9-1,3
			c0.1,1.1,0.6,2,1.4,2.5c2,1.5,4.9,0.3,6.9-0.9C143.4,56.9,143.7,56.8,143.9,56.7L143.9,56.7z"/>
		<path class="st2" d="M146.2,55.1H183c7,0,12.6-4,12.6-10.9v0c0-7-5.7-9.9-12.6-9.9h-11.6C157.5,34.2,146.2,41.1,146.2,55.1
			L146.2,55.1z"/>
		<path class="st1" d="M180.9,53.4h-30.6v-0.1c0-5.5,2.1-10,6.2-13c3.7-2.8,8.9-4.3,14.9-4.3h9.6c3.1,0,5.6,0.7,7.5,1.9
			c2.1,1.4,3.1,3.6,3.1,6.3c0,2.8-1.1,5.1-3.1,6.8C186.5,52.5,183.9,53.4,180.9,53.4z M150.5,53.2h30.5c6.2,0,10.4-3.6,10.4-9
			c0-5.2-3.8-8.1-10.4-8.1h-9.6C161.3,36.1,150.5,40.6,150.5,53.2z"/>
		<rect x="161.8" y="41.3" class="st1" width="4.3" height="1"/>
		<rect x="179.7" y="41.3" class="st1" width="1.5" height="1"/>
		<rect x="182.7" y="41.3" class="st1" width="1.5" height="1"/>
		<rect x="167.7" y="41.3" class="st1" width="10.4" height="1"/>
		<rect x="156.3" y="48.1" class="st1" width="4.3" height="1"/>
		<rect x="174.2" y="48.1" class="st1" width="1.5" height="1"/>
		<rect x="177.3" y="48.1" class="st1" width="1.5" height="1"/>
		<rect x="162.2" y="48.1" class="st1" width="10.4" height="1"/>
		<rect x="174.3" y="43.7" class="st1" width="4.3" height="1"/>
		<rect x="180.2" y="43.7" class="st1" width="4.3" height="1"/>
		<rect x="186" y="43.7" class="st1" width="1.5" height="1"/>
		<rect x="156.3" y="43.7" class="st1" width="1.5" height="1"/>
		<rect x="159.4" y="43.7" class="st1" width="1.5" height="1"/>
		<rect x="162.5" y="43.7" class="st1" width="10.4" height="1"/>
		<rect x="165.3" y="45.9" class="st1" width="4.3" height="1"/>
		<rect x="159.4" y="45.9" class="st1" width="4.3" height="1"/>
		<rect x="156.3" y="45.9" class="st1" width="1.5" height="1"/>
		<rect x="186" y="45.9" class="st1" width="1.5" height="1"/>
		<rect x="183" y="45.9" class="st1" width="1.5" height="1"/>
		<rect x="171.1" y="45.9" class="st1" width="10.4" height="1"/>
		<rect x="117.6" y="74.4" class="st1" width="1.5" height="1.2"/>
	</g>
	<path class="st2" d="M158.9,16.6c0-1.3,1.1-2.4,2.4-2.4c1.3,0,2.4,1.1,2.4,2.4s-1.1,2.4-2.4,2.4C160,19,158.9,17.9,158.9,16.6z
		 M159.3,16.6c0,1.1,0.9,2,2,2c1.1,0,2-0.9,2-2c0-1.1-0.9-2-2-2C160.2,14.6,159.3,15.5,159.3,16.6z"/>
	<path class="st2" d="M172.7,85.8l-3.5-3.8l3.8-3.5l3.5,3.8L172.7,85.8z M169.7,82l3,3.2l3.2-3l-3-3.2L169.7,82z"/>
	<path class="st2" d="M24.6,85.8l-4.8-5.1l5.1-4.8l4.8,5.1L24.6,85.8z M20.6,80.7l4,4.3l4.3-4l-4-4.3L20.6,80.7z"/>
</g>
</svg>
